<svg xmlns="http://www.w3.org/2000/svg" xmlns:svg="http://www.w3.org/2000/svg" id="svg16" width="100%" height="100%" version="1.1" viewBox="0 0 512 512"><rect id="rect2" width="512" height="512" x="0" y="0" fill="#fafcfc" rx="0"/><g id="g862" transform="matrix(1.086244,0,0,1.086244,-30.242995,-31.476632)"><path id="path6" fill="none" stroke="#0a9396" stroke-linecap="round" stroke-linejoin="round" stroke-width="14.056" d="m 76.104852,190.68304 q 37.482288,-35.13964 74.964578,0 37.48229,35.13965 74.96457,0 37.48229,-35.13964 74.96458,0 37.48229,35.13965 74.96458,0 37.48229,-35.13964 74.96458,0"/><path id="path8" fill="none" stroke="#0a9396" stroke-linecap="round" stroke-linejoin="round" stroke-width="14.056" d="m 76.104852,278.53216 q 46.852858,40.99625 93.705718,0 46.85286,-40.99626 93.70572,0 46.85286,40.99625 93.70573,0 46.85286,-40.99626 93.70572,0"/><path id="path10" fill="none" stroke="#0a9396" stroke-linecap="round" stroke-linejoin="round" stroke-width="14.056" d="m 76.104852,366.38127 q 37.482288,-23.42643 74.964578,0 37.48229,23.42643 74.96457,0 37.48229,-23.42643 74.96458,0 37.48229,23.42643 74.96458,0 37.48229,-23.42643 74.96458,0"/><line id="line854" x1="262.588" x2="262.588" y1="137.974" y2="401.521" stroke="#0a9396" stroke-linecap="round" stroke-width="10" style="stroke:#fff;stroke-width:24.1292;stroke-dasharray:none;stroke-opacity:1"/><line id="line12" x1="262.588" x2="262.588" y1="137.974" y2="401.521" stroke="#0a9396" stroke-linecap="round" stroke-width="11.713" style="stroke:#0a9396;stroke-opacity:1"/><circle id="circle14" cx="262.588" cy="137.974" r="16.399" fill="#fafcfc" stroke="#0a9396" stroke-width="11.713"/></g></svg>